<svg width="219" height="58" viewBox="0 0 219 58" fill="none" xmlns="http://www.w3.org/2000/svg">
<path d="M65.6967 39.0461C65.6967 35.8728 63.8834 34.1007 62.9768 33.3589C60.7513 31.5456 57.0835 30.8038 54.3635 30.062C52.4678 29.5674 50.3248 29.0317 49.0472 27.342C48.4702 26.559 48.1818 25.6523 48.1818 24.622C48.1818 22.7675 49.006 21.8196 49.5417 21.2839C51.3551 19.4706 54.4459 19.4294 55.0229 19.4294C58.5671 19.4294 60.5453 21.2015 61.3695 22.3966C61.9465 23.1796 62.2762 24.0039 62.5646 24.9105L65.1198 23.5505C64.5016 21.9433 63.9658 21.2015 63.4301 20.5421C61.3283 18.0282 58.2786 17.1627 55.1053 17.1627C54.3223 17.1627 49.4593 17.1215 46.9042 20.3772C46.3272 21.119 45.503 22.4378 45.503 24.7045C45.503 28.8668 48.3878 30.5153 49.7066 31.1747C51.6848 32.1226 53.9926 32.6171 56.0944 33.1529C59.4738 34.0595 61.1222 34.7601 62.1113 36.3262C62.8531 37.4801 62.8943 38.6752 62.8943 39.1286C62.8943 42.0546 60.8337 44.074 58.155 44.8982C56.7126 45.3103 55.435 45.3103 54.8581 45.3103C50.4484 45.3103 48.2642 43.2909 47.4399 41.4776C47.069 40.6946 46.863 39.9528 46.7806 38.2219L44.0194 39.6643C45.2145 45.3515 49.2945 47.7418 54.8581 47.7418C58.6495 47.7418 60.7513 46.6291 62.1113 45.6812C65.2434 43.4146 65.6967 40.571 65.6967 39.0461ZM97.2037 47V17.9045H93.7832L84.3457 42.5903L74.4961 17.9045H71.2403V47H73.9603L73.6306 22.273L83.3154 47H85.2111L94.6898 22.273L94.4838 47H97.2037ZM114.059 36.1201V33.6474H103.138V36.1201H114.059ZM141.128 17.9045H138.202L129.053 43.2085L120.11 17.9045H117.06L127.734 47H130.207L141.128 17.9045ZM148.031 22.7263V18.976H145.641V22.7263H148.031ZM148.031 47V27.342H145.641V47H148.031ZM170.533 47V17.9045H168.143V30.4741C167.937 29.9384 167.731 29.3614 166.824 28.4959C165.67 27.4244 164.063 26.9299 162.456 26.9299C160.395 26.9299 158.911 27.6717 158.211 28.125C154.131 30.6802 153.966 35.9553 153.966 37.1504C153.966 38.1395 154.049 43.6206 158.005 46.217C159.653 47.3297 161.343 47.4533 162.085 47.4533C164.722 47.4533 167.236 46.0521 168.143 43.4558V47H170.533ZM168.184 37.3152C168.143 39.4583 167.896 41.9722 166.288 43.6619C165.217 44.7334 163.981 45.1455 162.456 45.1455C156.521 45.1455 156.604 37.8098 156.604 37.1504C156.604 32.8644 158.335 30.639 160.024 29.7323C161.096 29.1553 162.085 29.1553 162.579 29.1553C164.187 29.1553 165.299 29.7735 165.835 30.1444C167.484 31.3396 168.225 33.3589 168.184 37.3152ZM194.415 41.8073L192.148 41.1479C190.294 44.857 187.574 45.2691 185.843 45.2691C181.351 45.3103 179.949 42.0546 179.537 40.4886C179.331 39.788 179.125 38.7989 179.166 37.1916H194.415V36.5734C194.415 34.1832 193.426 31.422 191.86 29.6499C189.593 27.0947 186.749 26.8475 185.554 26.8475C181.598 26.8475 178.383 29.279 177.106 32.988C176.488 34.7189 176.488 36.3262 176.488 36.9856C176.488 38.2631 176.652 44.0328 181.351 46.4642C183.205 47.4533 185.183 47.4945 185.884 47.4945C189.881 47.4945 191.818 45.64 192.89 44.3625C193.714 43.3322 194.209 42.2194 194.415 41.8073ZM191.612 35.1722H179.208C179.331 34.3068 179.579 33.2765 179.949 32.4523C180.485 31.3808 182.092 29.0317 185.513 29.0317C187.656 29.0317 191.035 30.1032 191.612 35.1722ZM216.854 37.068C216.813 34.1419 215.947 31.1335 213.763 29.0317C212.115 27.5069 210.26 26.8475 207.993 26.8475C206.056 26.8475 201.853 27.4244 199.916 32.4111C199.05 34.5953 199.009 36.5322 199.009 37.3977C199.009 40.9007 200.163 43.0025 201.029 44.1976C203.336 47.2473 206.469 47.4945 207.828 47.4945C211.991 47.4945 215.082 44.9806 216.318 41.0243C216.854 39.2934 216.854 37.7274 216.854 37.068ZM214.258 37.3152C214.216 43.5382 210.755 45.3515 207.87 45.3515C205.974 45.3515 204.82 44.6921 204.202 44.1976C201.523 42.0958 201.606 38.1395 201.606 37.3977C201.606 33.3177 202.883 31.1747 204.408 30.0208C205.809 28.9905 207.334 28.9081 207.952 28.9081C211.084 28.9081 214.34 30.9274 214.258 37.3152Z" fill="black"/>
<path d="M29.5004 28.6887V10.6887C29.5004 2.05362 18.6887 0.50212 15.7371 7.00002C15.2705 8.02717 15.0004 9.25547 15.0004 10.6887L15.0108 16.7987M15.0004 25.1886L15.0154 19.5L15.0108 16.7987M15.0108 16.7987C10.8407 17.0325 2.60038 15.3 3.00038 6.5" stroke="#4088F4" stroke-width="5" stroke-linecap="round" stroke-linejoin="round"/>
</svg>
